<svg width="27" height="27" viewBox="0 0 27 27" fill="none" xmlns="http://www.w3.org/2000/svg">
<path d="M1.41699 18.75L7.37699 12.79C7.6011 12.5659 7.86716 12.3881 8.16 12.2668C8.45283 12.1454 8.76669 12.083 9.08366 12.083C9.40063 12.083 9.71449 12.1454 10.0073 12.2668C10.3002 12.3881 10.5662 12.5659 10.7903 12.79L16.0837 18.0834M16.0837 18.0834L18.0837 20.0834M16.0837 18.0834L18.7103 15.4567C18.9344 15.2326 19.2005 15.0547 19.4933 14.9334C19.7862 14.8121 20.1 14.7497 20.417 14.7497C20.734 14.7497 21.0478 14.8121 21.3407 14.9334C21.6335 15.0547 21.8996 15.2326 22.1237 15.4567L25.417 18.75" stroke="white" stroke-width="1.5" stroke-linecap="round" stroke-linejoin="round"/>
<path d="M13.4167 0.75C7.77667 0.75 4.95667 0.75 3.08733 2.34733C2.82067 2.57489 2.574 2.82156 2.34733 3.08733C0.75 4.95667 0.75 7.77667 0.75 13.4167C0.75 19.0567 0.75 21.8767 2.34733 23.746C2.57489 24.0127 2.82156 24.2593 3.08733 24.486C4.95667 26.0833 7.77667 26.0833 13.4167 26.0833C19.0567 26.0833 21.8767 26.0833 23.746 24.486C24.0127 24.2584 24.2593 24.0118 24.486 23.746C26.0833 21.8767 26.0833 19.0567 26.0833 13.4167M18.0833 4.75C18.87 3.94067 20.9633 0.75 22.0833 0.75C23.2033 0.75 25.2967 3.94067 26.0833 4.75M22.0833 1.41667V10.0833" stroke="white" stroke-width="1.5" stroke-linecap="round" stroke-linejoin="round"/>
</svg>
